# xmcd
#
# Track frame offsets: 
#        150
#        21468
#        38963
#        59207
#        75316
#        92272
#        108337
#        128014
#        143739
#        164960
#        178646
#
# Disc length: 2595 seconds
#
# Revision: 1
# Processed by: cddbd v1.5.2PL0 Copyright (c) Steve Scherf et al.
# Submitted via: ExactAudioCopy v1.1
#
DISCID=930a210b
DTITLE=Paul Thorn - Too Blessed to be Stressed
DYEAR=2014
DGENRE=Blues Rock
TTITLE0=Everything's Gonna Be Alright
TTITLE1=Too Blessed to be Stressed
TTITLE2=Everybody Needs Somebody
TTITLE3=I Backslide on Friday
TTITLE4=This is a Real Goodbye
TTITLE5=Mediocrity is King
TTITLE6=Don't Let Nobody Rob You of Your Joy
TTITLE7=Get You a Healin'
TTITLE8=Old Stray Dogs and Jesus
TTITLE9=What Kind of Roof Do You Live Under
TTITLE10=No Place I'd rather Be
EXTD=
EXTT0=
EXTT1=
EXTT2=
EXTT3=
EXTT4=
EXTT5=
EXTT6=
EXTT7=
EXTT8=
EXTT9=
EXTT10=
PLAYORDER=
